#!OML:ASF F:\VICON\USERDATA\INSTALL\rory3\rory3.ASF
:FULLY-SPECIFIED
:DEGREES
119
root 1.262573834020332 17.8427769636481 46.92295608036413 -3.82705342825248 -0.9921375928073555 -0.025757406172546737
lfemur 7.3254438112415325 -2.6506364811694865 -22.34272523144296
ltibia 43.98696171463768
lfoot -17.3551831186682 -0.027761020194271957
ltoes -16.8243061735485
rfemur -20.541021886319616 1.7403620349228146 24.04294916677929
rtibia 23.740705605236002
rfoot 0.26439097087987484 -8.167935552112
rtoes 10.681986083430242
lowerback 10.477887430390357 -1.5817505847314484 -2.2823054972804444
upperback -0.19480524735366384 -2.446169557500042 2.0332110960860463
thorax -6.0028201679919375 -1.1665465225966467 4.37558440614582
lowerneck -16.747731505335558 -3.2089352282562995 -1.7164758116481031
upperneck 21.81125643500245 -4.269149934079441 1.0562390873631655
head 9.774017751430776 -2.0254249854739506 0.09524699790109384
lclavicle -2.7003079518366223e-15 -2.1517147062615203e-15
lhumerus -30.795456486380765 3.2751652182037314 82.75603724536973
lradius 23.531565424241954
lwrist 10.88707104347408
lhand -29.861918192636274 18.685222543235422
lfingers 7.125020000000001
lthumb -3.214567014915751 48.86434260321125
rclavicle -2.7003079517376293e-15 -2.1517147061935106e-15
rhumerus -31.696884596515062 -21.18723895172101 -76.55855226886408
rradius 26.42040672582717
rwrist 5.518649915331545
rhand -17.776530638155826 21.997176811008053
rfingers 7.125020000000001
rthumb 8.688495931731932 -7.955325474168243
120
root 1.2707573114681794 17.829877589586566 46.60372634834455 -4.004327230344235 -1.2850088393717474 0.1731394047259336
lfemur 7.841088437650864 -2.6421878912977674 -22.469855701426525
ltibia 44.29961511420146
lfoot -17.141817782894318 -0.30940594191332593
ltoes -17.64223109503353
rfemur -20.220862885319786 1.8309244009287686 24.160740385667143
rtibia 23.34311970488293
rfoot 0.3323943280378714 -8.108933912874665
rtoes 10.940919747375805
lowerback 10.474596646158687 -1.5552698191761198 -2.386902643339009
upperback -0.15258682843588725 -2.4397388702048888 2.023347630606645
thorax -5.950159676904048 -1.1692990920421684 4.366506424238471
lowerneck -16.815541544008344 -3.2153624865540107 -1.7221742274058678
upperneck 21.888897800962972 -4.265207306323301 1.043322864378484
head 9.83552613064341 -2.0210931143664723 0.08432695232857423
lclavicle -2.700307951832853e-15 -2.151714706258705e-15
lhumerus -31.076012420029414 3.3503284450869475 82.64673519718374
lradius 23.51324186821368
lwrist 10.749262958199468
lhand -30.01311006148463 18.337365626356828
lfingers 7.125020000000001
lthumb -3.363138098320962 48.35703141907227
rclavicle -2.7003079517551424e-15 -2.1517147062051266e-15
rhumerus -31.261815168906004 -20.837261186451187 -76.53046944219302
rradius 26.469204041074935
rwrist 5.912834132683631
rhand -17.76741531879815 22.072498420975084
rfingers 7.125020000000001
rthumb 8.802149114089486 -7.695209342678336
121
root 1.267768294192582 17.833865920823214 46.193311451425686 -3.803752255998983 -1.3994050477935274 -0.23538262475395744
lfemur 8.21968879797853 -2.6366877810745124 -22.01307770463166
ltibia 44.541410665116054
lfoot -16.831004954083294 -0.45747221917769076
ltoes -19.24238077638453
rfemur -19.79276060423414 2.0134374478525268 24.629061014117895
rtibia 22.46795254769785
rfoot 0.3369748615832009 -8.050004707648947
rtoes 10.03766888068407
lowerback 10.413918405883505 -1.5444110183551305 -2.030069846726893
upperback -0.18351195900640693 -2.358136310823849 2.0954214050807334
thorax -5.984401690137527 -1.1232691913753836 4.332876988937511
lowerneck -16.81465800925181 -3.2125013212180735 -1.7085643294607968
upperneck 21.94730274136487 -4.264692936163987 0.965985721972418
head 9.874591930154008 -2.0218304435327337 0.051669005845765975
lclavicle -2.700307951834187e-15 -2.1517147062593955e-15
lhumerus -31.245161135267566 3.5024701223947217 82.49833769562342
lradius 23.528039924841355
lwrist 11.132741846248326
lhand -29.965354394286305 18.892207672423613
lfingers 7.125020000000001
lthumb -3.2806771776089487 49.17405487918237
rclavicle -2.7003079517553057e-15 -2.1517147062050856e-15
rhumerus -30.793864269483546 -20.412036309774358 -76.57803544640146
rradius 26.560847637399583
rwrist 5.855132478816303
rhand -17.818960882142633 22.06673188522269
rfingers 7.125020000000001
rthumb 8.693421784280243 -7.879850469596283
122
root 1.2673826110940607 17.830041004943606 45.43304498834492 -3.8003276078931356 -1.5384390098934049 -0.36425843104297284
lfemur 8.366892755803107 -2.622209590352767 -21.786151855619647
ltibia 45.141537417642965
lfoot -16.56219767021973 -0.6224019753155705
ltoes -20.1929209891328
rfemur -19.354475196038408 2.143921618611635 24.866921727502973
rtibia 21.927722638560716
rfoot 0.3113932365752561 -7.956372389099899
rtoes 10.839016928748974
lowerback 10.388887452565143 -1.531230219461608 -1.8797187510407554
upperback -0.15816479149189958 -2.342633433623237 2.1348406204713357
thorax -5.962124270892925 -1.1434148468875065 4.257839997128045
lowerneck -16.832681917837355 -3.221409730921265 -1.7128661342601248
upperneck 21.933424424287914 -4.275422476193652 0.951809167624731
head 9.8554230600575 -2.0277462832945568 0.04762635570617979
lclavicle -2.7003079518340017e-15 -2.151714706259122e-15
lhumerus -31.498652843842503 3.46382586584564 82.27924374690132
lradius 23.576389159869766
lwrist 11.35086066558041
lhand -30.052847248728494 18.769274559255074
lfingers 7.125020000000001
lthumb -3.3784646228782425 48.96912106203606
rclavicle -2.700307951758204e-15 -2.1517147062068818e-15
rhumerus -30.131951215935555 -19.82638869078695 -76.57223321078256
rradius 26.58027039530574
rwrist 5.998930146258384
rhand -17.761134656034645 22.218250808644534
rfingers 7.125020000000001
rthumb 8.834729593239167 -7.579601803817682
